HIERARCHY
ROOT Body
{
	OFFSET 0.087617 0.000000 0.591414
	CHANNELS 6 Xposition Yposition Zposition Xrotation Yrotation Zrotation
	JOINT Body.003
	{
		OFFSET 0.000000 -0.071482 -0.638178
		CHANNELS 6 Xposition Yposition Zposition Xrotation Yrotation Zrotation
		End Site
		{
			OFFSET 0.010995 -0.008808 -0.486827
		}
	}
	JOINT Helmet
	{
		OFFSET 0.010995 -0.034950 0.485651
		CHANNELS 3 Xrotation Yrotation Zrotation
		End Site
		{
			OFFSET -0.093465 -0.035779 0.753241
		}
	}
	JOINT Cil_D
	{
		OFFSET 0.010995 -0.034950 0.485651
		CHANNELS 3 Xrotation Yrotation Zrotation
		End Site
		{
			OFFSET -0.542369 -1.175761 0.184857
		}
	}
	JOINT Cil_G
	{
		OFFSET 0.010995 -0.034950 0.485651
		CHANNELS 3 Xrotation Yrotation Zrotation
		End Site
		{
			OFFSET 0.462981 -1.173081 0.179817
		}
	}
	JOINT Shield
	{
		OFFSET 0.010995 -0.034950 0.485651
		CHANNELS 3 Xrotation Yrotation Zrotation
		End Site
		{
			OFFSET -1.124785 -0.938581 -0.722240
		}
	}
	JOINT Axe
	{
		OFFSET 0.010995 -0.034950 0.485651
		CHANNELS 3 Xrotation Yrotation Zrotation
		End Site
		{
			OFFSET 1.324819 -0.177242 -0.798961
		}
	}
}
MOTION
Frames: 30
Frame Time: 0.041667
0.087617 0.000000 0.584510 0.373917 -0.079531 0.048683 -0.000001 -0.071549 -0.631907 -0.000000 -0.000000 -0.000005 -0.022105 1.042085 -0.316288 0.122593 -0.931453 0.053126 0.204034 -0.019219 0.278429 0.090925 -0.104311 0.000360 0.586740 1.282723 -0.250233 
0.087617 0.000000 0.565771 1.389854 -0.293922 0.183519 -0.000004 -0.071721 -0.614885 -0.000000 -0.000000 -0.000003 -0.010825 0.970317 -0.300669 0.087461 -2.300990 -0.109152 0.386946 1.091679 0.726656 0.350408 -0.377205 -0.003827 3.318135 1.869677 -0.798917 
0.087617 0.000000 0.538154 2.889490 -0.605736 0.389319 -0.000008 -0.071952 -0.589798 0.000000 -0.000000 -0.000010 0.005832 0.864558 -0.277624 0.028349 -4.324262 -0.350880 0.641453 2.734984 1.382801 0.758534 -0.758749 -0.019878 7.416827 2.694868 -1.596912 
0.087617 0.000000 0.504620 4.713841 -0.977304 0.650355 -0.000013 -0.072198 -0.559333 0.000000 -0.000000 -0.000003 0.026119 0.736144 -0.249600 -0.055510 -6.787561 -0.649196 0.926703 4.740731 2.174049 1.295361 -1.189264 -0.055191 12.501483 3.633889 -2.544544 
0.087617 0.000000 0.468128 6.702436 -1.372201 0.947916 -0.000017 -0.072414 -0.526176 -0.000001 -0.000000 -0.000006 0.048262 0.596410 -0.219055 -0.162385 -9.473907 -0.980855 1.207844 6.937487 3.030871 1.941012 -1.609287 -0.118137 18.167953 4.583914 -3.517862 
0.087617 0.000000 0.431635 8.693399 -1.756524 1.259058 -0.000019 -0.072556 -0.493014 0.000000 -0.000000 -0.000005 0.070483 0.456691 -0.188454 -0.286313 -12.163615 -1.321133 1.458840 9.152116 3.887005 2.675656 -1.959615 -0.218674 23.993374 5.480385 -4.364728 
0.087617 0.000000 0.398101 10.524130 -2.099774 1.556490 -0.000020 -0.072578 -0.462533 -0.000002 -0.000001 -0.000001 0.090962 0.328307 -0.160288 -0.416051 -14.636259 -1.642694 1.663313 11.210226 4.678195 3.479721 -2.181214 -0.368875 29.552077 6.305417 -4.912015 
0.087617 0.000000 0.370485 12.032159 -2.374969 1.809410 -0.000017 -0.072436 -0.437420 0.000000 -0.000000 0.000002 0.107880 0.222589 -0.137059 -0.534973 -16.672736 -1.914898 1.813649 12.936320 5.340284 4.334160 -2.215158 -0.583153 34.432705 7.082562 -4.975821 
0.087617 0.000000 0.351745 13.055688 -2.557765 1.985043 -0.000011 -0.072086 -0.420360 -0.000002 -0.000000 0.000000 0.119381 0.150858 -0.121278 -0.622315 -18.056276 -2.104095 1.908262 14.152780 5.807263 5.220905 -2.002454 -0.878345 38.244432 7.856995 -4.364882 
0.087617 0.000000 0.344841 13.433489 -2.624409 2.050669 -0.000000 -0.071482 -0.414041 0.000002 -0.000000 -0.000003 0.123624 0.124430 -0.115461 -0.656193 -18.571375 -2.175438 1.946840 14.676927 6.009775 6.123547 -1.483794 -1.273629 40.604423 8.663200 -2.871072 
0.087617 0.000000 0.388435 12.681295 -2.476515 1.918262 -0.000258 -0.069215 -0.436630 -0.000001 -0.000000 0.000000 0.082837 0.183762 -0.133455 -0.836749 -17.476087 -2.307394 2.143860 13.077223 6.446196 7.048928 -0.225895 -1.855765 41.952224 8.841870 -0.622201 
0.087617 0.000000 0.506763 10.633822 -2.064900 1.567530 -0.000877 -0.064347 -0.498035 0.000001 0.000000 0.000000 -0.027781 0.344872 -0.182087 -1.310224 -14.468825 -2.642223 2.724338 8.459725 7.578535 8.014485 1.992494 -2.674804 43.040878 7.907530 2.037706 
0.087617 0.000000 0.681141 7.608446 -1.433264 1.076018 -0.001581 -0.057540 -0.588559 -0.000002 0.000000 0.000000 -0.190563 0.582478 -0.253192 -1.970220 -9.991511 -3.082453 3.745252 1.474498 9.310749 9.022296 4.910076 -3.691134 43.945441 6.119686 4.996900 
0.087617 0.000000 0.892885 3.927877 -0.629436 0.523005 -0.002095 -0.049460 -0.698501 0.000001 -0.000000 0.000000 -0.387847 0.871277 -0.338634 -2.721053 -4.506683 -3.539404 5.280196 -7.120018 11.583798 10.068866 8.260948 -4.856724 44.723966 3.740792 8.126253 
0.087617 0.000000 1.123313 -0.077989 0.285872 -0.020025 -0.002144 -0.040768 -0.818163 -0.000000 -0.000000 -0.000003 -0.602077 1.185900 -0.430495 -3.488229 1.490262 -3.947367 7.375965 -16.439176 14.353016 11.137516 11.777010 -6.112464 45.402675 1.038321 11.286697 
0.087617 0.000000 1.353741 -4.075696 1.236800 -0.497873 -0.001454 -0.032128 -0.937845 -0.000000 -0.000000 -0.000003 -0.815826 1.500862 -0.521191 -4.216896 7.481663 -4.266237 10.003316 -25.550810 17.535467 12.192204 15.193747 -7.384491 45.967344 -1.718861 14.331639 
0.087617 0.000000 1.565485 -7.734747 2.135766 -0.876845 0.000251 -0.024205 -1.047849 -0.000002 -0.000000 -0.000003 -1.011831 1.790577 -0.603505 -4.864118 12.952711 -4.478413 12.982244 -33.613738 20.922410 13.173535 18.256715 -8.580844 46.361415 -4.266730 17.106673 
0.087617 0.000000 1.739863 -10.733042 2.889873 -1.144458 0.003245 -0.017661 -1.138475 -0.000002 0.000000 0.000002 -1.172953 2.029367 -0.670558 -5.389651 17.415217 -4.583892 15.887640 -39.989518 24.071615 13.998713 20.725400 -9.590637 46.490748 -6.350178 19.449988 
0.087617 0.000000 1.858191 -12.758009 3.406833 -1.302841 0.007804 -0.013159 -1.200024 0.000001 -0.000000 -0.000001 -1.282134 2.191503 -0.715679 -5.748687 20.415196 -4.594047 18.001110 -44.252529 26.248315 14.567725 22.371725 -10.288621 46.235323 -7.720415 21.196756 
0.087617 0.000000 1.901785 -13.501862 3.598112 -1.356439 0.014202 -0.011364 -1.222797 -0.000001 -0.000001 -0.000003 -1.322330 2.251257 -0.732225 -5.888389 21.517630 -4.522100 18.438249 -46.066457 26.542653 14.777809 22.971497 -10.547433 45.468306 -8.122934 22.189888 
0.087617 0.000000 1.864466 -13.125256 3.493688 -1.330183 0.021968 -0.011144 -1.222255 -0.000000 -0.000001 -0.000001 -1.282582 2.197801 -0.721224 -5.739415 20.886537 -4.325793 16.878111 -45.339346 24.595011 14.275496 22.370055 -10.146937 43.291979 -7.993246 21.966998 
0.087617 0.000000 1.763173 -12.102273 3.210943 -1.255416 0.029847 -0.011171 -1.217520 -0.000002 -0.000001 0.000000 -1.174644 2.052747 -0.691174 -5.311739 19.159541 -3.977312 14.042696 -42.471045 21.140262 12.941475 20.716884 -9.093777 39.192834 -7.854384 20.366786 
0.087617 0.000000 1.613899 -10.592881 2.796354 -1.135950 0.036934 -0.011813 -1.204385 -0.000001 -0.000000 -0.000001 -1.015451 1.839076 -0.646397 -4.664168 16.606905 -3.498558 10.757715 -37.792407 17.037603 11.050902 18.229961 -7.629508 33.648118 -7.516201 17.712934 
0.087617 0.000000 1.432637 -8.757638 2.296859 -0.976132 0.042323 -0.013436 -1.178643 0.000000 -0.000000 -0.000008 -0.821938 1.579780 -0.591232 -3.855561 13.502821 -2.911355 7.664673 -31.733889 12.962673 8.868631 15.139435 -5.985784 27.192006 -6.801193 14.376445 
0.087617 0.000000 1.235381 -6.758287 1.759079 -0.784059 0.045111 -0.016408 -1.136088 0.000000 -0.000000 -0.000003 -0.611088 1.297815 -0.530209 -2.947728 10.126859 -2.245038 5.103490 -24.862998 9.298893 6.624040 11.703902 -4.355007 20.413255 -5.632201 10.771131 
0.087617 0.000000 1.038126 -4.757633 1.228325 -0.573383 0.041178 -0.024548 -1.050791 -0.000000 -0.000000 0.000002 -0.399960 1.016074 -0.468157 -2.008760 6.760888 -1.541527 3.171661 -17.842556 6.205203 4.502739 8.210471 -2.878512 13.901987 -4.081709 7.300852 
0.087617 0.000000 0.856864 -2.918905 0.747656 -0.363722 0.030085 -0.038507 -0.923120 -0.000000 -0.000001 -0.000006 -0.205698 0.757385 -0.410224 -1.116084 3.683459 -0.857883 1.829073 -11.355581 3.728471 2.651500 4.964150 -1.649165 8.182614 -2.361739 4.294980 
0.087617 0.000000 0.707589 -1.405026 0.357429 -0.179759 0.016448 -0.053905 -0.788307 0.000000 -0.000000 0.000002 -0.045534 0.544503 -0.361862 -0.357718 1.164757 -0.266126 0.978390 -6.040402 1.887987 1.190737 2.274130 -0.723117 3.680249 -0.766915 1.978459 
0.087617 0.000000 0.606296 -0.378186 0.095745 -0.049232 0.004881 -0.066357 -0.681582 0.000000 -0.000000 -0.000003 0.063245 0.400128 -0.328707 0.169598 -0.534494 0.150789 0.515335 -2.466386 0.721752 0.229593 0.444041 -0.137087 0.739195 0.391348 0.494233 
0.087617 0.000000 0.568977 -0.000000 0.000000 0.000000 -0.000000 -0.071482 -0.638178 -0.000000 0.000000 0.000000 0.103340 0.346956 -0.316423 0.366555 -1.158294 0.307468 0.366555 -1.158296 0.307468 -0.118740 -0.230667 0.070447 -0.319062 0.831242 -0.035105 
